<?xml version="1.0" standalone="no"?>
<!DOCTYPE svg PUBLIC "-//W3C//DTD SVG 20010904//EN"
 "http://www.w3.org/TR/2001/REC-SVG-20010904/DTD/svg10.dtd">
<svg version="1.0" xmlns="http://www.w3.org/2000/svg"
 width="100.000000pt" height="100.000000pt" viewBox="0 0 100.000000 100.000000"
 preserveAspectRatio="xMidYMid meet">
<metadata>
Created by potrace 1.16, written by Peter Selinger 2001-2019
</metadata>
<g transform="translate(0.000000,100.000000) scale(0.100000,-0.100000)"
fill="#000000" stroke="none">
<path d="M140 500 l0 -460 360 0 360 0 0 338 0 337 -123 123 -122 122 -238 0
-237 0 0 -460z m440 300 l0 -120 120 0 120 0 0 -300 0 -300 -320 0 -320 0 0
420 0 420 200 0 200 0 0 -120z"/>
<path d="M420 582 c0 -11 9 -27 20 -37 21 -19 20 -19 -19 -59 -52 -55 -61 -75
-61 -141 0 -110 58 -176 161 -183 55 -4 59 -3 59 17 0 14 -8 23 -27 27 -44 11
-63 33 -63 75 0 39 33 89 72 110 16 9 24 6 42 -10 12 -12 30 -21 39 -21 15 0
17 14 17 120 l0 120 -120 0 c-110 0 -120 -2 -120 -18z m200 -84 c0 -48 -3 -59
-12 -50 -19 19 -41 14 -81 -15 -57 -43 -87 -91 -87 -137 -1 -38 -2 -40 -15
-22 -21 28 -19 105 4 142 11 18 35 44 55 59 37 28 45 52 24 73 -9 9 2 12 50
12 l62 0 0 -62z"/>
</g>
</svg>
