<?xml version="1.0" encoding="utf-8"?>
<!-- Generator: Adobe Illustrator 19.0.0, SVG Export Plug-In . SVG Version: 6.00 Build 0)  -->
<svg version="1.1" id="Слой_1" xmlns="http://www.w3.org/2000/svg" xmlns:xlink="http://www.w3.org/1999/xlink" x="0px" y="0px"
	 viewBox="285 -500 550.5 550" style="enable-background:new 285 -500 550.5 550;" xml:space="preserve">
<style type="text/css">
	.st0{fill:#2E354E;}
</style>
<g id="Слой_3">
</g>
<g id="Слой_2">
	<path class="st0" d="M285,50v-550h550.5V50H285z M793.8,5.3v-460.6H326.5V5.3H793.8L793.8,5.3z"/>
	<polygon class="st0" points="505.1,-126.4 505.1,-176.2 612,-176.2 612,-37.3 505.8,-37.3 505.8,-81.3 575,-81.3 575,-126.4 	"/>
	<path class="st0" d="M384.6-37.3V-127h-20.7v-49.1h20.7v-45.6l117.2-79.4v-111.6H615v112l119.6,79.3v45.1h21.9v51.9h-21.8v87H627.8
		v-138.7h64.3v-19l-118.5-77.7v-76.5H543v76.5l-116.5,77.6v19.1h64v138.8L384.6-37.3L384.6-37.3z M453.8-81.1v-45.3h-27.5v45.3
		H453.8z M663.9-81.1h28.2v-45.3h-28.2V-81.1L663.9-81.1z"/>
</g>
</svg>
