<svg width="65" height="65" xmlns="http://www.w3.org/2000/svg">
 <defs>
  <style type="text/css">
   <![CDATA[
    .fil2 {fill:none}
    .fil0 {fill:#FEFEFE}
    .fil1 {fill:#2e354e}
   ]]>
  </style>
 </defs>
 <g>
  <title>background</title>
  <rect x="-1" y="-1" width="20.840498" height="20.840498" id="canvas_background" fill="none"/>
 </g>
 <g>
  <title>Layer 1</title>
  <g id="Layer_x0020_1" stroke="null">
   <metadata id="CorelCorpID_0Corel-Layer"/>
   <polygon class="fil0" points="22.934204389028977,1.0394867658615112 41.65200833521588,1.0394867658615112 41.65200833521588,19.921131134033203 61.51404241173144,33.154022216796875 61.51404241173144,41.268070220947266 65.0059875222921,41.268070220947266 65.0059875222921,49.459510803222656 61.51404241173144,49.459510803222656 61.51404241173144,64.75 43.3884004401268,64.75 43.3884004401268,41.268070220947266 54.363420766046815,41.268070220947266 54.363420766046815,37.991397857666016 34.90738668399602,25.100147247314453 34.90738668399602,12.016831398010254 30.25118572085283,12.016831398010254 30.25118572085283,25.100147247314453 10.794710560568305,37.991397857666016 10.794710560568305,41.268070220947266 21.271187285489745,41.268070220947266 21.271187285489745,64.75 3.3116449757380764,64.75 3.3116449757380764,49.459510803222656 0.15191447734832764,49.459510803222656 0.15191447734832764,41.268070220947266 3.3116449757380764,41.268070220947266 3.3116449757380764,33.154022216796875 22.934204389028977,19.921131134033203 " id="svg_2" stroke="null"/>
   <polygon class="fil0" points="23.931730743154034,41.268070220947266 40.89376595983889,41.268070220947266 40.89376595983889,64.75 23.931730743154034,64.75 23.931730743154034,57.286659240722656 34.90738668399602,57.286659240722656 34.90738668399602,49.459510803222656 23.931730743154034,49.42718505859375 " id="svg_3" stroke="null"/>
   <polygon class="fil1" points="10.794710560568305,49.45925521850586 15.118269195666002,49.45925521850586 15.118269195666002,57.286659240722656 10.794710560568305,57.286659240722656 " id="svg_4" stroke="null"/>
   <polygon class="fil0" points="27.756753481676455,51.826175689697266 32.74495923183734,51.826175689697266 32.74495923183734,54.92068862915039 27.756753481676455,54.92068862915039 " id="svg_5" stroke="null"/>
   <polygon class="fil1" points="50.04028009591296,49.45925521850586 54.363212746617805,49.45925521850586 54.363212746617805,57.286659240722656 50.04028009591296,57.286659240722656 " id="svg_6" stroke="null"/>
  </g>
 </g>
</svg>